<?xml version="1.0" encoding="UTF-8"?>
<svg version="1.1" xmlns="http://www.w3.org/2000/svg" width="32" height="32">
<path d="M0 0 C0.99 0 1.98 0 3 0 C2.47458553 7.7498635 0.44408524 14.6450086 -2 22 C-2.99 22 -3.98 22 -5 22 C-4.47458553 14.2501365 -2.44408524 7.3549914 0 0 Z " fill="#000000" transform="translate(17,5)"/>
<path d="M0 0 C3.11259604 0.345844 4.82872813 0.87379967 7.375 2.75 C9 5 9 5 9 7.5 C7.7979573 10.50510675 6.55991646 12.0252073 4 14 C2.68 14 1.36 14 0 14 C0.62759865 11.07120629 1.58622659 8.63904371 3 6 C2.505 5.566875 2.01 5.13375 1.5 4.6875 C0 3 0 3 0 0 Z " fill="#000000" transform="translate(22,9)"/>
<path d="M0 0 C-0.62759865 2.92879371 -1.58622659 5.36095629 -3 8 C-2.2575 8.6496875 -2.2575 8.6496875 -1.5 9.3125 C0 11 0 11 0 14 C-3.11259604 13.654156 -4.82872813 13.12620033 -7.375 11.25 C-9 9 -9 9 -9 6.5 C-7.06083307 1.65208268 -5.25978845 0 0 0 Z " fill="#000000" transform="translate(10,9)"/>
</svg>
